<svg width="39" height="44" viewBox="0 0 39 44" fill="none" xmlns="http://www.w3.org/2000/svg">
<path d="M10.6755 9.00818L11.0841 8.88388L11.0252 8.46087C10.9737 8.09116 11 7.71443 11.1022 7.35646C11.2043 6.99851 11.3796 6.66839 11.6154 6.38818C11.8511 6.10801 12.1416 5.88439 12.4666 5.73155C12.7916 5.57873 13.1439 5.49995 13.4999 5.5L13.5001 5.5C13.8561 5.49995 14.2084 5.57873 14.5334 5.73155C14.8584 5.88439 15.1489 6.10801 15.3846 6.38818C15.6204 6.6684 15.7957 6.99851 15.8978 7.35646C16 7.71443 16.0263 8.09116 15.9748 8.46087L15.9159 8.88388L16.3245 9.00818C18.3924 9.63723 20.2102 10.9395 21.5046 12.7236C22.7991 14.508 23.4999 16.6779 23.5 18.9091V31.2727V31.7727H24H25.5C25.7603 31.7727 26.0131 31.8791 26.2019 32.0736C26.3911 32.2686 26.5 32.5362 26.5 32.8182C26.5 33.1002 26.3911 33.3678 26.2019 33.5627C26.0131 33.7572 25.7603 33.8636 25.5 33.8636H1.5C1.23968 33.8636 0.986895 33.7572 0.79813 33.5627C0.608873 33.3678 0.5 33.1002 0.5 32.8182C0.5 32.5362 0.608873 32.2686 0.79813 32.0736C0.986895 31.8791 1.23968 31.7727 1.5 31.7727H3H3.5V31.2727V18.9091C3.5 18.9091 3.5 18.9091 3.5 18.9091C3.50012 16.6778 4.20087 14.508 5.4954 12.7236C6.78977 10.9395 8.60757 9.63723 10.6755 9.00818ZM16 37.4545C16 37.7366 15.8911 38.0041 15.7019 38.1991C15.5131 38.3936 15.2603 38.5 15 38.5H12C11.7397 38.5 11.4869 38.3936 11.2981 38.1991C11.1089 38.0041 11 37.7366 11 37.4545C11 37.1725 11.1089 36.905 11.2981 36.71C11.4869 36.5155 11.7397 36.4091 12 36.4091H15C15.2603 36.4091 15.5131 36.5155 15.7019 36.71C15.8911 36.905 16 37.1725 16 37.4545Z" fill="#9DB5FF" stroke="#9DB5FF"/>
</svg>
