<svg width="55" height="55" viewBox="0 0 55 55" fill="none" xmlns="http://www.w3.org/2000/svg">
<g clip-path="url(#clip0_27_12841)">
<rect width="55" height="55" rx="7" fill="#2276FF"/>
<path d="M44.9333 16.2785L42.4303 7.30948C42.3285 6.93293 42.109 6.60098 41.8055 6.36447C41.502 6.12796 41.1312 5.99993 40.75 6H14.25C13.4624 6 12.7798 6.53814 12.5697 7.30948L10.0668 16.2785C9.75169 17.4086 10.5918 18.5566 11.7471 18.5566H15.5978L13.7599 32.6918C13.7229 32.926 13.732 33.1655 13.7868 33.396C13.8417 33.6266 13.9411 33.8435 14.0792 34.034C14.2173 34.2245 14.3913 34.3846 14.5908 34.505C14.7904 34.6253 15.0115 34.7034 15.241 34.7346C15.4706 34.7658 15.7039 34.7495 15.9272 34.6866C16.1504 34.6238 16.3591 34.5157 16.5409 34.3687C16.7227 34.2217 16.8739 34.0388 16.9855 33.8309C17.097 33.623 17.1668 33.3942 17.1906 33.1582L18.1708 25.7318H36.8467L37.8094 33.1582C37.868 33.5831 38.0733 33.9724 38.388 34.2554C38.7027 34.5384 39.106 34.6965 39.5247 34.7008C40.5749 34.7008 41.3801 33.7501 41.2401 32.6918L39.4022 18.5566H43.2529C44.4082 18.5566 45.2483 17.4086 44.9333 16.2785ZM18.6258 22.1442L19.0984 18.5566H35.9016L36.3742 22.1442H18.6258Z" fill="white"/>
<path d="M28.5056 49V46.76H22.8896V45.416L28.2336 37.8H30.1856V45.288H31.7536V46.76H30.1856V49H28.5056ZM24.7296 45.288H28.6016V39.672L24.7296 45.288Z" fill="#F6F7FA"/>
</g>
<defs>
<clipPath id="clip0_27_12841">
<rect width="55" height="55" rx="7" fill="white"/>
</clipPath>
</defs>
</svg>
