<svg width="55" height="55" viewBox="0 0 55 55" fill="none" xmlns="http://www.w3.org/2000/svg">
<rect width="55" height="55" rx="7" fill="#2276FF"/>
<path d="M26.0417 35.5184C26.0417 33.639 26.5886 31.8874 27.532 30.4141H16.2015C14.3902 30.4141 12.9219 31.8825 12.9219 33.6937V35.0354C12.9219 35.8697 13.1821 36.6831 13.6662 37.3626C15.9151 40.5189 19.5945 42.0825 24.5834 42.0825C25.9412 42.0825 27.2024 41.9667 28.3641 41.7344C26.9174 40.0703 26.0417 37.8966 26.0417 35.5184Z" fill="white"/>
<path d="M24.5807 12.9219C28.6078 12.9219 31.8724 16.1865 31.8724 20.2135C31.8724 24.2406 28.6078 27.5051 24.5807 27.5051C20.5536 27.5051 17.2891 24.2406 17.2891 20.2135C17.2891 16.1865 20.5536 12.9219 24.5807 12.9219Z" fill="white"/>
<path d="M28.172 35.3007C28.1724 35.6879 28.4887 36.0014 28.8784 36.001C29.2681 36.0006 29.5837 35.6865 29.5833 35.2993L28.172 35.3007ZM32.8198 29.2546L32.5418 28.6102L32.541 28.6106L32.8198 29.2546ZM36.5088 28.8807L36.6523 28.1942L36.6501 28.1938L36.5088 28.8807ZM40.7032 33.624C40.8109 33.9962 41.2018 34.2111 41.5763 34.1041C41.9509 33.9972 42.1673 33.6088 42.0596 33.2367L40.7032 33.624ZM40.6984 33.254C40.6004 33.6288 40.8268 34.0115 41.204 34.1089C41.5811 34.2063 41.9663 33.9814 42.0643 33.6066L40.6984 33.254ZM42.7323 31.0528C42.8304 30.6781 42.6041 30.2953 42.2269 30.1979C41.8497 30.1005 41.4645 30.3254 41.3664 30.7001L42.7323 31.0528ZM41.1935 34.1061C41.5691 34.2092 41.9578 33.9903 42.0615 33.6171C42.1654 33.2438 41.945 32.8577 41.5694 32.7546L41.1935 34.1061ZM39.0771 32.0703C38.7014 31.9672 38.3128 32.1861 38.209 32.5593C38.1052 32.9325 38.3256 33.3187 38.7012 33.4218L39.0771 32.0703ZM42.755 35.2993C42.7546 34.912 42.4384 34.5985 42.0487 34.5988C41.659 34.5992 41.3434 34.9134 41.3438 35.3007L42.755 35.2993ZM34.4182 41.7192L34.2748 42.4056L34.277 42.4061L34.4182 41.7192ZM30.2238 36.9758C30.1162 36.6037 29.7253 36.3888 29.3507 36.4957C28.9762 36.6027 28.7598 36.9911 28.8675 37.3632L30.2238 36.9758ZM30.2286 37.3458C30.3266 36.9712 30.1003 36.5884 29.7232 36.4909C29.346 36.3935 28.9607 36.6185 28.8627 36.9932L30.2286 37.3458ZM28.1947 39.5471C28.0967 39.9218 28.323 40.3045 28.7002 40.4019C29.0774 40.4994 29.4626 40.2744 29.5606 39.8997L28.1947 39.5471ZM29.7336 36.4938C29.358 36.3906 28.9693 36.6096 28.8655 36.9827C28.7617 37.356 28.9821 37.7422 29.3577 37.8453L29.7336 36.4938ZM31.85 38.5296C32.2256 38.6327 32.6143 38.4137 32.7181 38.0406C32.8219 37.6673 32.6015 37.2811 32.2259 37.178L31.85 38.5296ZM29.5833 35.2993C29.5821 34.1448 29.9167 33.0146 30.5468 32.0447L29.3611 31.2843C28.5835 32.4812 28.1706 33.8759 28.172 35.3007L29.5833 35.2993ZM30.5468 32.0447C31.1637 31.0934 32.0523 30.3458 33.0986 29.8986L32.541 28.6106C31.2368 29.1679 30.13 30.0985 29.3611 31.2843L30.5468 32.0447ZM33.0977 29.899C34.1283 29.4602 35.269 29.3446 36.3676 29.5676L36.6501 28.1938C35.2699 27.9136 33.8366 28.0589 32.5418 28.6102L33.0977 29.899ZM36.3653 29.5671C37.4725 29.7956 38.4845 30.3505 39.2693 31.1593L40.2853 30.1861C39.3035 29.1742 38.0374 28.48 36.6523 28.1942L36.3653 29.5671ZM39.2693 31.1593C39.9428 31.8518 40.4355 32.6985 40.7032 33.624L42.0596 33.2367C41.7281 32.0907 41.1192 31.0436 40.2853 30.1861L39.2693 31.1593ZM42.0643 33.6066L42.7323 31.0528L41.3664 30.7001L40.6984 33.254L42.0643 33.6066ZM41.5694 32.7546L39.0771 32.0703L38.7012 33.4218L41.1935 34.1061L41.5694 32.7546ZM41.3438 35.3007C41.345 36.4551 41.0103 37.5852 40.3802 38.5552L41.566 39.3155C42.3436 38.1186 42.7564 36.7239 42.755 35.2993L41.3438 35.3007ZM40.3802 38.5552C39.7634 39.5066 38.8747 40.2541 37.8285 40.7012L38.3853 41.9897C39.6894 41.4323 40.7972 40.5013 41.566 39.3155L40.3802 38.5552ZM37.8285 40.7012C36.798 41.14 35.658 41.2552 34.5596 41.0323L34.277 42.4061C35.6571 42.6862 37.0905 42.5409 38.3853 41.9897L37.8285 40.7012ZM34.5617 41.0328C33.4546 40.8043 32.4426 40.2494 31.6578 39.4406L30.6418 40.4137C31.6236 41.4256 32.8897 42.1198 34.2748 42.4056L34.5617 41.0328ZM31.6578 39.4406C30.9843 38.748 30.4916 37.9014 30.2238 36.9758L28.8675 37.3632C29.199 38.5092 29.8079 39.5562 30.6418 40.4137L31.6578 39.4406ZM28.8627 36.9932L28.1947 39.5471L29.5606 39.8997L30.2286 37.3458L28.8627 36.9932ZM29.3577 37.8453L31.85 38.5296L32.2259 37.178L29.7336 36.4938L29.3577 37.8453Z" fill="white"/>
</svg>
