<svg width="55" height="55" viewBox="0 0 55 55" fill="none" xmlns="http://www.w3.org/2000/svg">
<rect width="55" height="55" rx="7" fill="#2276FF"/>
<path d="M38.7503 38.7503L33.3215 33.3215M33.3215 33.3215C34.2501 32.3929 34.9867 31.2905 35.4893 30.0772C35.9918 28.8639 36.2505 27.5635 36.2505 26.2503C36.2505 24.937 35.9919 23.6366 35.4893 22.4233C34.9867 21.21 34.2501 20.1076 33.3215 19.179C32.3929 18.2504 31.2905 17.5138 30.0772 17.0112C28.8639 16.5087 27.5635 16.25 26.2503 16.25C24.937 16.25 23.6366 16.5087 22.4233 17.0112C21.21 17.5138 20.1076 18.2504 19.179 19.179C17.3036 21.0544 16.25 23.598 16.25 26.2503C16.25 28.9025 17.3036 31.4461 19.179 33.3215C21.0544 35.1969 23.598 36.2505 26.2503 36.2505C28.9025 36.2505 31.4461 35.1969 33.3215 33.3215Z" stroke="white" stroke-width="2" stroke-linecap="round" stroke-linejoin="round"/>
</svg>
