<svg width="84" height="58" viewBox="0 0 84 58" fill="none" xmlns="http://www.w3.org/2000/svg">
<path d="M11.3009 30.2005C17.5244 30.2005 22.5666 25.09 22.5666 18.7643C22.5666 12.4566 17.5244 7.32812 11.3009 7.32812C5.04222 7.32812 0 12.4566 0 18.7643C0 25.09 5.04222 30.2005 11.3009 30.2005ZM11.3009 24.6969C8.03934 24.6969 5.43008 22.0522 5.43008 18.7643C5.43008 15.4943 8.03934 12.8318 11.3009 12.8318C14.5272 12.8318 17.1365 15.4943 17.1365 18.7643C17.1365 22.0522 14.5272 24.6969 11.3009 24.6969Z" fill="#2276FF"/>
<path d="M29.2423 10.9188L28.9603 8.04189H23.8828V29.4848H29.3129V20.5681C29.3129 14.0995 32.8037 13.1703 35.1838 13.1703C35.4306 13.1703 35.6774 13.1703 35.8889 13.1882L36.7704 7.14844C34.2141 7.16631 31.3051 8.22058 29.2423 10.9188Z" fill="#2276FF"/>
<path d="M50.092 7.34419C47.4475 7.34419 45.1556 8.32699 43.516 10.239V0H38.0859V29.484H43.1634L43.3925 27.1431C45.0145 29.1266 47.3418 30.2166 50.145 30.2166C56.6681 30.2166 60.4409 24.4092 60.4409 18.7983C60.4409 12.5084 56.0687 7.34419 50.092 7.34419ZM49.2105 24.7129C45.9842 24.7129 43.516 22.247 43.516 18.7447C43.516 15.0815 46.231 12.8479 49.2105 12.8479C52.4897 12.8479 55.0108 15.564 55.0108 18.7268C55.0108 21.7288 52.7542 24.7129 49.2105 24.7129Z" fill="#2276FF"/>
<path d="M78.3046 8.03906L72.522 21.566L67.6208 8.03906H61.75L69.9303 27.6593L65.7167 37.523H71.4112L83.9992 8.03906H78.3046Z" fill="#2276FF"/>
<path d="M1.708 57.4453V37.8453H9.1C10.6867 37.8453 11.9933 38.116 13.02 38.6573C14.0653 39.18 14.84 39.8986 15.344 40.8133C15.848 41.728 16.1 42.764 16.1 43.9213C16.1 44.9853 15.8573 45.9746 15.372 46.8893C14.8867 47.804 14.1213 48.5506 13.076 49.1293C12.0493 49.6893 10.724 49.9693 9.1 49.9693H5.488V57.4453H1.708ZM5.488 46.9173H8.848C10.0613 46.9173 10.9293 46.6466 11.452 46.1053C11.9747 45.564 12.236 44.836 12.236 43.9213C12.236 42.9693 11.9747 42.232 11.452 41.7093C10.9293 41.1866 10.0613 40.9253 8.848 40.9253H5.488V46.9173ZM25.9151 57.7813C23.9924 57.7813 22.2938 57.352 20.8191 56.4933C19.3444 55.6346 18.1871 54.4493 17.3471 52.9373C16.5071 51.4066 16.0871 49.6426 16.0871 47.6453C16.0871 45.648 16.5071 43.8933 17.3471 42.3813C18.1871 40.8506 19.3444 39.656 20.8191 38.7973C22.2938 37.9386 23.9924 37.5093 25.9151 37.5093C27.8751 37.5093 29.5924 37.9386 31.0671 38.7973C32.5604 39.656 33.7178 40.8506 34.5391 42.3813C35.3604 43.8933 35.7711 45.648 35.7711 47.6453C35.7711 49.6426 35.3604 51.4066 34.5391 52.9373C33.7178 54.4493 32.5604 55.6346 31.0671 56.4933C29.5924 57.352 27.8751 57.7813 25.9151 57.7813ZM25.9431 54.3933C27.1564 54.3933 28.2111 54.1226 29.1071 53.5813C30.0031 53.0213 30.6938 52.2373 31.1791 51.2293C31.6831 50.2213 31.9351 49.0266 31.9351 47.6453C31.9351 46.2453 31.6831 45.0506 31.1791 44.0613C30.6938 43.0533 30.0031 42.2786 29.1071 41.7373C28.2111 41.196 27.1564 40.9253 25.9431 40.9253C24.7298 40.9253 23.6751 41.196 22.7791 41.7373C21.8831 42.2786 21.1831 43.0533 20.6791 44.0613C20.1938 45.0506 19.9511 46.2453 19.9511 47.6453C19.9511 49.0266 20.1938 50.2213 20.6791 51.2293C21.1831 52.2373 21.8831 53.0213 22.7791 53.5813C23.6751 54.1226 24.7298 54.3933 25.9431 54.3933ZM43.5022 57.7813C42.0835 57.7813 40.8142 57.5386 39.6942 57.0533C38.5928 56.568 37.7155 55.8586 37.0622 54.9253C36.4275 53.992 36.0915 52.8626 36.0542 51.5373H40.0582C40.0955 52.116 40.2448 52.6386 40.5062 53.1053C40.7862 53.572 41.1782 53.9453 41.6822 54.2253C42.1862 54.4866 42.7835 54.6173 43.4742 54.6173C44.0715 54.6173 44.5848 54.524 45.0142 54.3373C45.4622 54.1506 45.8075 53.88 46.0502 53.5253C46.3115 53.1706 46.4422 52.7413 46.4422 52.2373C46.4422 51.6586 46.3022 51.1826 46.0222 50.8093C45.7422 50.436 45.3502 50.1186 44.8462 49.8573C44.3608 49.596 43.8102 49.3626 43.1942 49.1573C42.5782 48.9333 41.9248 48.7093 41.2342 48.4853C39.7035 47.9626 38.5275 47.2906 37.7062 46.4693C36.9035 45.6293 36.5022 44.5093 36.5022 43.1093C36.5022 41.952 36.7822 40.9533 37.3422 40.1133C37.9208 39.2733 38.7142 38.6293 39.7222 38.1813C40.7302 37.7333 41.8782 37.5093 43.1662 37.5093C44.4915 37.5093 45.6488 37.7426 46.6382 38.2093C47.6462 38.6573 48.4395 39.3106 49.0182 40.1693C49.6155 41.028 49.9235 42.036 49.9422 43.1933H45.8822C45.8822 42.7453 45.7608 42.3346 45.5182 41.9613C45.2942 41.5693 44.9768 41.2613 44.5662 41.0373C44.1555 40.7946 43.6702 40.6733 43.1102 40.6733C42.6062 40.6546 42.1582 40.7293 41.7662 40.8973C41.3742 41.0653 41.0568 41.3173 40.8142 41.6533C40.5902 41.9706 40.4782 42.372 40.4782 42.8573C40.4782 43.324 40.5902 43.716 40.8142 44.0333C41.0382 44.3506 41.3555 44.6306 41.7662 44.8733C42.1768 45.0973 42.6528 45.312 43.1942 45.5173C43.7542 45.704 44.3702 45.9093 45.0422 46.1333C46.0315 46.4693 46.9275 46.8706 47.7302 47.3373C48.5515 47.7853 49.2048 48.3733 49.6902 49.1013C50.1755 49.8293 50.4182 50.7813 50.4182 51.9573C50.4182 53.0026 50.1475 53.964 49.6062 54.8413C49.0835 55.7186 48.3088 56.428 47.2822 56.9693C46.2555 57.5106 44.9955 57.7813 43.5022 57.7813Z" fill="#2276FF"/>
</svg>
