<svg width="35" height="26" viewBox="0 0 35 26" fill="none" xmlns="http://www.w3.org/2000/svg">
<path d="M34.9333 9.43782L32.4303 1.63867C32.3285 1.31124 32.109 1.02259 31.8055 0.816929C31.502 0.611267 31.1312 0.49994 30.75 0.5H4.25003C3.46238 0.5 2.77976 0.967948 2.56972 1.63867L0.0667505 9.43782C-0.248308 10.4205 0.591848 11.4188 1.74706 11.4188H5.59778L3.75994 23.7102C3.72285 23.9139 3.732 24.1222 3.78683 24.3227C3.84166 24.5231 3.94107 24.7118 4.07917 24.8774C4.21727 25.043 4.39125 25.1823 4.59082 25.2869C4.79039 25.3916 5.01149 25.4595 5.24103 25.4866C5.47056 25.5137 5.70388 25.4996 5.92716 25.4449C6.15044 25.3903 6.35914 25.2962 6.54092 25.1684C6.7227 25.0406 6.87386 24.8816 6.98545 24.7008C7.09704 24.52 7.16679 24.3211 7.19058 24.1158L8.17076 17.6581H26.8467L27.8094 24.1158C27.868 24.4853 28.0733 24.8238 28.388 25.0699C28.7027 25.316 29.106 25.4535 29.5247 25.4573C30.5749 25.4573 31.3801 24.6305 31.2401 23.7102L29.4022 11.4188H33.2529C34.4082 11.4188 35.2483 10.4205 34.9333 9.43782ZM8.62585 14.5385L9.09843 11.4188H25.9016L26.3742 14.5385H8.62585Z" fill="#05CD99"/>
</svg>
