<svg width="28" height="35" viewBox="0 0 28 35" fill="none" xmlns="http://www.w3.org/2000/svg">
<path d="M3.02469 0H0V35H3.02469V31.5H6.04938V35H9.07407V31.5H12.0988V35H15.1235V31.5H18.1481V35H21.1728V31.5H24.1975V35H27.2222V0H24.1975V3.5H21.1728V0H18.1481V3.5H15.1235V0H12.0988V3.5H9.07407V0H6.04938V3.5H3.02469V0ZM6.04938 3.5H9.07407V7H12.0988V3.5H15.1235V7H18.1481V3.5H21.1728V7H24.1975V28H21.1728V31.5H18.1481V28H15.1235V31.5H12.0988V28H9.07407V31.5H6.04938V28H3.02469V7H6.04938V3.5ZM6.04938 10.5H21.1728V14H6.04938V10.5ZM21.1728 17.5H6.04938V21H21.1728V17.5Z" fill="#9DB5FF"/>
</svg>
