<svg width="30" height="30" viewBox="0 0 30 30" fill="none" xmlns="http://www.w3.org/2000/svg">
<path d="M2 8.5V5.25C2 4.38805 2.34241 3.5614 2.9519 2.9519C3.5614 2.34241 4.38805 2 5.25 2H8.5M2 21.5V24.75C2 25.612 2.34241 26.4386 2.9519 27.0481C3.5614 27.6576 4.38805 28 5.25 28H8.5M21.5 2H24.75C25.612 2 26.4386 2.34241 27.0481 2.9519C27.6576 3.5614 28 4.38805 28 5.25V8.5M21.5 28H24.75C25.612 28 26.4386 27.6576 27.0481 27.0481C27.6576 26.4386 28 25.612 28 24.75V21.5M6.875 15H23.125" stroke="#9DB5FF" stroke-width="3" stroke-linecap="round" stroke-linejoin="round"/>
</svg>
