<svg width="40" height="40" viewBox="0 0 40 40" fill="none" xmlns="http://www.w3.org/2000/svg">
<g clip-path="url(#clip0_1_81770)">
<path d="M2.49997 5.625H37.5C38.8801 5.625 40 6.74495 40 8.1262V31.8762C40 33.2562 38.8801 34.3762 37.5 34.3762H2.49997C1.11871 34.3763 0 33.2562 0 31.8764V8.1262C0 6.74495 1.11995 5.625 2.49997 5.625Z" fill="#26A6D1"/>
<path d="M6.45004 15.625L2.5 24.3663H7.22875L7.81498 22.9726H9.15497L9.7412 24.3663H14.9462V23.3026L15.41 24.3663H18.1025L18.5663 23.2801V24.3663H29.3913L30.7076 23.0088L31.9401 24.3663L37.5001 24.3776L33.5376 20.0201L37.5001 15.625H32.0263L30.745 16.9574L29.5513 15.625H17.7751L16.7639 17.8812L15.7289 15.625H11.01V16.6525L10.4851 15.625H6.45004ZM7.36503 16.8663H9.67004L12.2901 22.7938V16.8663H14.8152L16.8388 21.1163L18.7039 16.8663H21.2164V23.1387H19.6876L19.6751 18.2237L17.4463 23.1387H16.0788L13.8375 18.2237V23.1387H10.6925L10.0963 21.7325H6.87504L6.28004 23.1375H4.59498L7.36503 16.8663ZM22.615 16.8663H28.8313L30.7325 18.92L32.6951 16.8663H34.5964L31.7076 20.0188L34.5964 23.135H32.6089L30.7076 21.0575L28.735 23.135H22.615V16.8663ZM8.48635 17.9275L7.42508 20.4326H9.54638L8.48635 17.9275ZM24.1501 18.165V19.31H27.5413V20.5863H24.1501V21.8363H27.9539L29.7213 19.9951L28.0289 18.1639H24.1501V18.165Z" fill="white"/>
</g>
<defs>
<clipPath id="clip0_1_81770">
<rect width="40" height="40" fill="white"/>
</clipPath>
</defs>
</svg>
