<svg width="40" height="40" viewBox="0 0 40 40" fill="none" xmlns="http://www.w3.org/2000/svg">
<g clip-path="url(#clip0_1_81775)">
<path d="M18.9153 19.8202V24.4749H17.4375V12.9774H21.3549C22.2999 12.9573 23.2131 13.3158 23.8917 13.9726C24.5786 14.5909 24.9657 15.4756 24.9506 16.3988C24.9707 17.3287 24.5836 18.2201 23.8917 18.8401C23.2064 19.4935 22.3602 19.8202 21.3549 19.8186L18.9153 19.8202ZM18.9153 14.3932V18.4078H21.3918C21.9413 18.4245 22.4708 18.2084 22.8528 17.813C23.6286 17.059 23.647 15.8174 22.8914 15.0416C22.878 15.0282 22.8662 15.0148 22.8528 15.0031C22.4758 14.5993 21.943 14.3781 21.3918 14.3932H18.9153ZM28.3553 16.3519C29.4477 16.3519 30.3089 16.6434 30.9406 17.2265C31.5723 17.8096 31.8873 18.6105 31.8873 19.6259V24.4749H30.4748V23.3824H30.4112C29.7996 24.2822 28.9853 24.7312 27.9699 24.7312C27.1037 24.7312 26.3781 24.4749 25.7951 23.9605C25.2287 23.483 24.907 22.7759 24.9204 22.0336C24.9204 21.2193 25.2287 20.5726 25.8436 20.0917C26.4586 19.6108 27.2796 19.3695 28.3084 19.3695C29.1847 19.3695 29.9085 19.5304 30.4748 19.8504V19.5119C30.4782 19.0059 30.2537 18.5267 29.8649 18.205C29.4745 17.8532 28.9652 17.6605 28.439 17.6672C27.6147 17.6672 26.9612 18.0157 26.4804 18.711L25.1801 17.8917C25.8939 16.8646 26.9529 16.3519 28.3553 16.3519ZM26.4435 22.0671C26.4418 22.4492 26.6244 22.8077 26.9327 23.0306C27.2595 23.2869 27.665 23.4243 28.0805 23.4159C28.7038 23.4143 29.302 23.1663 29.7426 22.7256C30.2319 22.2648 30.4765 21.7253 30.4765 21.1037C30.0157 20.7368 29.374 20.5524 28.5496 20.5524C27.9498 20.5524 27.4488 20.6965 27.0484 20.9864C26.6446 21.2813 26.4435 21.6382 26.4435 22.0671ZM39.9969 16.6082L35.0658 27.9432H33.541L35.3707 23.9772L32.1269 16.6082H33.7321L36.0761 22.2598H36.108L38.3884 16.6082H39.9969Z" fill="#5F6368"/>
<path d="M12.9529 18.8125C12.9529 18.3618 12.9161 17.9128 12.839 17.4688H6.60938V20.0122H10.1766C10.0291 20.8332 9.55329 21.5587 8.85794 22.0195V23.6716H10.9875C12.2341 22.5238 12.9529 20.8232 12.9529 18.8125Z" fill="#4285F4"/>
<path d="M6.60435 25.2713C8.38712 25.2713 9.8884 24.6865 10.9825 23.6762L8.85292 22.0241C8.25978 22.4262 7.49741 22.6558 6.60435 22.6558C4.8819 22.6558 3.41916 21.4946 2.8964 19.9297H0.703125V21.632C1.82406 23.8638 4.10781 25.2713 6.60435 25.2713Z" fill="#34A853"/>
<path d="M2.897 19.926C2.62053 19.1067 2.62053 18.217 2.897 17.3977V15.6953H0.703724C-0.234575 17.5619 -0.234575 19.7618 0.703724 21.6284L2.897 19.926Z" fill="#FBBC04"/>
<path d="M6.60435 14.6706C7.546 14.6555 8.45582 15.0107 9.13776 15.6608L11.0244 13.7759C9.82808 12.6533 8.2447 12.0367 6.60435 12.0551C4.10781 12.0551 1.82406 13.4642 0.703125 15.6943L2.8964 17.3967C3.41916 15.8317 4.8819 14.6706 6.60435 14.6706Z" fill="#EA4335"/>
</g>
<defs>
<clipPath id="clip0_1_81775">
<rect width="40" height="40" fill="white"/>
</clipPath>
</defs>
</svg>
