<svg width="40" height="40" viewBox="0 0 40 40" fill="none" xmlns="http://www.w3.org/2000/svg">
<g clip-path="url(#clip0_1_81765)">
<path d="M37.2403 6.55469H2.75754C1.42444 6.55469 0.34375 7.63538 0.34375 8.96848V31.0374C0.34375 32.3705 1.42444 33.4512 2.75754 33.4512H37.2403C38.5734 33.4512 39.6541 32.3705 39.6541 31.0374V8.96848C39.6541 7.63538 38.5734 6.55469 37.2403 6.55469Z" fill="white" stroke="#F3F3F3"/>
<path d="M23.6621 26.1871H16.5234V13.4531H23.6621V26.1871Z" fill="#FF5F00"/>
<path d="M16.9828 19.8251C16.9828 17.242 18.2013 14.9409 20.0989 13.4581C18.7112 12.3738 16.96 11.7266 15.0566 11.7266C10.5509 11.7266 6.89844 15.3524 6.89844 19.8251C6.89844 24.2978 10.5509 27.9236 15.0566 27.9236C16.96 27.9236 18.7112 27.2764 20.0989 26.1921C18.2013 24.7093 16.9828 22.4082 16.9828 19.8251Z" fill="#EB001B"/>
<path d="M33.2946 19.8251C33.2946 24.2978 29.6422 27.9236 25.1364 27.9236C23.2331 27.9236 21.4819 27.2764 20.0938 26.1921C21.9918 24.7093 23.2103 22.4082 23.2103 19.8251C23.2103 17.242 21.9918 14.9409 20.0938 13.4581C21.4819 12.3738 23.2331 11.7266 25.1364 11.7266C29.6422 11.7266 33.2946 15.3524 33.2946 19.8251Z" fill="#F79E1B"/>
</g>
<defs>
<clipPath id="clip0_1_81765">
<rect width="40" height="40" fill="white"/>
</clipPath>
</defs>
</svg>
