<svg width="79" height="144" viewBox="0 0 79 144" fill="none" xmlns="http://www.w3.org/2000/svg">
<path d="M76.25 33.0247C75.7994 36.581 75.2213 40.4019 72.7133 42.9639C70.3375 45.3935 66.742 46.1332 63.3522 46.3683C47.7258 47.4411 32.2513 40.3137 16.7033 42.2389C11.9272 42.8316 7.01885 44.4383 3.8152 48.0338C0.714418 51.5167 -0.358366 56.4741 0.102097 61.1179C0.562561 65.7617 2.40442 70.1606 4.54018 74.3097C10.2764 85.4441 18.2169 95.2755 24.6977 105.998C31.1736 116.716 36.5914 126.548 35.357 141.4C35.2884 142.238 35.2737 143.242 35.9546 143.751C36.9392 144.481 38.2667 143.467 38.977 142.468C46.0015 132.568 38.0708 116.148 33.5886 106.625C31.4332 102.045 32.0847 103.642 29.9196 99.062C25.5941 89.9409 21.6851 80.428 20.6466 70.2978C20.2498 66.4083 20.4899 61.98 23.3653 59.3299C26.0987 56.8071 30.2282 56.7876 33.9462 56.91C44.4634 57.2627 54.9854 57.6154 65.5075 57.9632C69.2696 58.0857 73.5607 58.0024 76.0737 55.1955C77.3277 53.7994 77.9106 51.9282 78.2731 50.0863C79.3998 44.3746 78.6797 38.3151 76.25 33.0247Z" fill="#9B0F44"/>
<path d="M56.5565 21.0285C56.5565 30.1398 52.9316 33.0789 48.082 33.1279V0.0627251C53.2745 0.748524 56.5565 11.9172 56.5565 21.0285Z" fill="#A86B82"/>
<path d="M48.0819 0.064682V33.1299H47.9839C43.0854 33.1299 39.6074 31.2194 39.6074 22.0592C39.6074 12.8989 43.5263 -0.523148 47.9839 0.0156937C48.0329 0.0156937 48.0329 0.0156975 48.0819 0.064682Z" fill="#9B0F44"/>
</svg>
