<svg width="464" height="144" viewBox="0 0 464 144" fill="none" xmlns="http://www.w3.org/2000/svg">
<path d="M116.815 51.1269H125.388V91.5399C125.388 95.1942 124.663 98.3195 123.218 100.921C121.788 103.517 119.774 105.501 117.178 106.872C114.577 108.229 111.535 108.905 108.047 108.905C104.839 108.905 101.953 108.322 99.3913 107.152C96.849 105.986 94.8357 104.286 93.3514 102.062C91.8868 99.8135 91.152 97.0851 91.152 93.8765H99.695C99.695 95.4538 100.062 96.8205 100.783 97.9668C101.522 99.118 102.536 100.019 103.815 100.671C105.118 101.303 106.602 101.616 108.268 101.616C110.09 101.616 111.628 101.234 112.892 100.475C114.17 99.696 115.145 98.5546 115.811 97.0508C116.482 95.5469 116.815 93.71 116.815 91.5399V51.1269ZM161.965 90.3985V65.3767H170.317V108.126H162.132V100.725H161.691C160.706 103.003 159.129 104.908 156.959 106.431C154.804 107.93 152.124 108.685 148.916 108.685C146.168 108.685 143.738 108.077 141.622 106.872C139.525 105.648 137.874 103.84 136.669 101.45C135.479 99.0543 134.886 96.0955 134.886 92.5686V65.3767H143.209V91.5644C143.209 94.479 144.017 96.8009 145.629 98.5252C147.24 100.25 149.342 101.117 151.918 101.117C153.476 101.117 155.029 100.725 156.567 99.9409C158.125 99.1669 159.413 97.9864 160.437 96.414C161.476 94.8317 161.985 92.8282 161.965 90.3985ZM187.467 108.126H179.145V51.1269H187.467V108.126ZM196.314 65.3767H204.637V108.131H196.314V65.3767ZM200.517 58.7784C199.072 58.7784 197.828 58.2983 196.789 57.3333C195.765 56.3487 195.256 55.1829 195.256 53.826C195.256 52.4544 195.765 51.2836 196.789 50.3186C197.828 49.334 199.072 48.8441 200.517 48.8441C201.962 48.8441 203.196 49.334 204.215 50.3186C205.259 51.2836 205.778 52.4544 205.778 53.826C205.778 55.1829 205.259 56.3487 204.215 57.3333C203.196 58.2983 201.962 58.7784 200.517 58.7784ZM231.907 108.989C227.694 108.989 224.064 108.087 221.022 106.289C218 104.472 215.658 101.925 214.008 98.6379C212.376 95.3363 211.558 91.4664 211.558 87.0332C211.558 82.6539 212.376 78.789 214.008 75.4531C215.658 72.1123 217.961 69.5062 220.91 67.6301C223.878 65.7588 227.351 64.8183 231.319 64.8183C233.734 64.8183 236.071 65.22 238.334 66.0185C240.597 66.8169 242.63 68.066 244.428 69.7756C246.225 71.4803 247.646 73.6994 248.684 76.4279C249.728 79.1368 250.247 82.4286 250.247 86.3082V89.2572H216.261V83.0213H242.096C242.096 80.8317 241.645 78.8918 240.754 77.2067C239.867 75.4972 238.613 74.1549 237.001 73.1703C235.4 72.1857 233.528 71.6959 231.378 71.6959C229.041 71.6959 226.999 72.269 225.255 73.4202C223.53 74.5517 222.193 76.036 221.248 77.8729C220.317 79.6952 219.856 81.6693 219.856 83.8002V88.6742C219.856 91.5301 220.356 93.9647 221.355 95.9633C222.374 97.9668 223.795 99.5 225.612 100.553C227.434 101.597 229.556 102.116 231.99 102.116C233.563 102.116 235.003 101.895 236.301 101.45C237.604 100.984 238.726 100.299 239.671 99.3874C240.617 98.4811 241.337 97.3545 241.841 96.0221L249.718 97.4426C249.086 99.7597 247.955 101.788 246.323 103.536C244.707 105.261 242.679 106.608 240.23 107.573C237.8 108.513 235.022 108.989 231.907 108.989ZM277.081 72.0535H253.73V65.3718H277.081V72.0535ZM259.995 55.1339H268.318V95.5763C268.318 97.1879 268.558 98.4077 269.043 99.2208C269.523 100.019 270.145 100.563 270.909 100.862C271.688 101.141 272.531 101.283 273.437 101.283C274.108 101.283 274.691 101.234 275.195 101.141C275.695 101.048 276.082 100.975 276.361 100.921L277.86 107.793C277.385 107.979 276.694 108.166 275.808 108.352C274.916 108.553 273.799 108.665 272.467 108.685C270.277 108.719 268.235 108.332 266.344 107.514C264.448 106.696 262.92 105.437 261.749 103.732C260.578 102.023 259.995 99.8821 259.995 97.3006V55.1339ZM350.001 51.1269V108.126H344.936L311.258 60.3949H310.813V108.126H305.61V51.1269H310.646L344.431 98.9122H344.877V51.1269H350.001ZM373.715 109.101C371.133 109.101 368.782 108.602 366.641 107.597C364.511 106.578 362.811 105.114 361.547 103.198C360.293 101.273 359.661 98.9318 359.661 96.1886C359.661 94.0724 360.058 92.2894 360.856 90.8443C361.655 89.3943 362.781 88.2089 364.251 87.2782C365.721 86.3523 367.455 85.6224 369.458 85.0836C371.462 84.5448 373.671 84.1284 376.076 83.8296C378.476 83.5308 380.499 83.2711 382.15 83.0507C383.816 82.8254 385.089 82.4727 385.961 81.9926C386.833 81.5126 387.264 80.7288 387.264 79.656V78.6518C387.264 75.7372 386.397 73.4496 384.648 71.7792C382.929 70.0892 380.441 69.2466 377.193 69.2466C374.117 69.2466 371.599 69.9226 369.654 71.2795C367.724 72.6315 366.367 74.2284 365.588 76.0654L360.886 74.3656C361.851 72.029 363.183 70.1626 364.893 68.7714C366.602 67.3607 368.508 66.3516 370.629 65.7392C372.74 65.1073 374.886 64.7938 377.051 64.7938C378.682 64.7938 380.387 65.0045 382.15 65.4306C383.928 65.8568 385.584 66.6014 387.098 67.6595C388.626 68.698 389.861 70.1528 390.806 72.029C391.747 73.8855 392.227 76.2417 392.227 79.0976V108.126H387.264V101.361H386.966C386.373 102.625 385.491 103.85 384.32 105.035C383.15 106.226 381.685 107.201 379.917 107.96C378.158 108.719 376.091 109.101 373.715 109.101ZM374.386 104.565C377.017 104.565 379.294 103.982 381.229 102.811C383.159 101.641 384.639 100.093 385.682 98.1627C386.74 96.218 387.264 94.0724 387.264 91.7358V85.5539C386.897 85.9066 386.275 86.225 385.408 86.4993C384.551 86.7785 383.561 87.0332 382.429 87.2537C381.313 87.4594 380.201 87.6358 379.089 87.7827C377.977 87.9297 376.972 88.0619 376.076 88.1697C373.671 88.4685 371.609 88.929 369.904 89.5609C368.194 90.1928 366.882 91.0647 365.98 92.1767C365.069 93.274 364.609 94.6848 364.609 96.414C364.609 99.0102 365.544 101.019 367.396 102.449C369.252 103.86 371.579 104.565 374.386 104.565ZM403.106 65.3767H408.088V108.131H403.106V65.3767ZM405.634 58.0289C404.615 58.0289 403.748 57.686 403.018 57.0002C402.303 56.2948 401.94 55.4474 401.94 54.4677C401.94 53.4831 402.303 52.6503 403.018 51.9596C403.748 51.2542 404.615 50.9064 405.634 50.9064C406.658 50.9064 407.535 51.2542 408.255 51.9596C408.98 52.6503 409.337 53.4831 409.337 54.4677C409.337 55.4474 408.98 56.2948 408.255 57.0002C407.535 57.686 406.658 58.0289 405.634 58.0289ZM423.793 108.126H418.84V51.1269H423.793V108.126ZM463.275 74.7575L458.734 76.036C458.288 74.7575 457.661 73.5965 456.848 72.558C456.03 71.5195 454.962 70.6917 453.64 70.0794C452.346 69.467 450.735 69.1633 448.805 69.1633C445.91 69.1633 443.534 69.8491 441.677 71.2207C439.821 72.5923 438.895 74.3656 438.895 76.5356C438.895 78.3726 439.522 79.8667 440.781 81.0178C442.069 82.1494 444.029 83.0507 446.684 83.7169L453.145 85.304C456.726 86.176 459.405 87.5574 461.183 89.4531C462.986 91.344 463.887 93.7198 463.887 96.5756C463.887 98.9906 463.216 101.131 461.884 103.003C460.542 104.879 458.685 106.358 456.285 107.436C453.914 108.489 451.156 109.018 448.026 109.018C443.843 109.018 440.409 108.077 437.695 106.211C434.991 104.315 433.252 101.587 432.493 98.0256L437.254 96.8548C437.866 99.3972 439.062 101.317 440.845 102.616C442.642 103.919 445.008 104.565 447.943 104.565C451.225 104.565 453.845 103.83 455.82 102.366C457.784 100.881 458.768 99.0249 458.768 96.8009C458.768 95.0718 458.19 93.6267 457.044 92.4559C455.893 91.2705 454.149 90.3985 451.803 89.8401L444.817 88.1697C441.114 87.2782 438.366 85.8723 436.583 83.9422C434.805 82.0122 433.913 79.6168 433.913 76.761C433.913 74.4048 434.555 72.3376 435.833 70.5545C437.107 68.7518 438.875 67.346 441.124 66.3222C443.367 65.3033 445.929 64.7938 448.805 64.7938C452.719 64.7938 455.839 65.6805 458.181 67.4635C460.537 69.227 462.237 71.6567 463.275 74.7575Z" fill="#110219"/>
<path d="M76.25 33.0247C75.7994 36.581 75.2213 40.4019 72.7133 42.9639C70.3375 45.3935 66.742 46.1332 63.3522 46.3683C47.7258 47.4411 32.2513 40.3137 16.7033 42.2389C11.9272 42.8316 7.01885 44.4383 3.8152 48.0338C0.714418 51.5167 -0.358366 56.4741 0.102097 61.1179C0.562561 65.7617 2.40442 70.1606 4.54018 74.3097C10.2764 85.4441 18.2169 95.2755 24.6977 105.998C31.1736 116.716 36.5914 126.548 35.357 141.4C35.2884 142.238 35.2737 143.242 35.9546 143.751C36.9392 144.481 38.2667 143.467 38.977 142.468C46.0015 132.568 38.0708 116.148 33.5886 106.625C31.4332 102.045 32.0847 103.642 29.9196 99.062C25.5941 89.9409 21.6851 80.428 20.6466 70.2978C20.2498 66.4083 20.4899 61.98 23.3653 59.3299C26.0987 56.8071 30.2282 56.7876 33.9462 56.91C44.4634 57.2627 54.9854 57.6154 65.5075 57.9632C69.2696 58.0857 73.5607 58.0024 76.0737 55.1955C77.3277 53.7994 77.9106 51.9282 78.2731 50.0863C79.3998 44.3746 78.6797 38.3151 76.25 33.0247Z" fill="#9B0F44"/>
<path d="M56.5565 21.0288C56.5565 30.1401 52.9316 33.0792 48.082 33.1282V0.0629692C53.2745 0.748768 56.5565 11.9175 56.5565 21.0288Z" fill="#A86B82"/>
<path d="M48.0829 0.064682V33.1299H47.9849C43.0864 33.1299 39.6084 31.2194 39.6084 22.0592C39.6084 12.8989 43.5272 -0.523148 47.9849 0.0156937C48.0339 0.0156937 48.0339 0.0156975 48.0829 0.064682Z" fill="#9B0F44"/>
</svg>
