<svg width="484" height="151" viewBox="0 0 484 151" fill="none" xmlns="http://www.w3.org/2000/svg">
<path d="M122.074 46.8115H131.004V88.9084C131.004 92.715 130.249 95.9705 128.743 98.68C127.253 101.384 125.156 103.451 122.452 104.88C119.742 106.293 116.574 106.997 112.94 106.997C109.598 106.997 106.593 106.39 103.924 105.171C101.276 103.956 99.1786 102.186 97.6325 99.8689C96.1068 97.5268 95.3414 94.6846 95.3414 91.3424H104.24C104.24 92.9854 104.623 94.4091 105.373 95.6031C106.144 96.8022 107.2 97.7411 108.532 98.4198C109.889 99.078 111.435 99.4046 113.17 99.4046C115.068 99.4046 116.67 99.0066 117.987 98.2156C119.319 97.4043 120.334 96.2154 121.028 94.6489C121.727 93.0824 122.074 91.1689 122.074 88.9084V46.8115ZM169.105 87.7195V61.6551H177.805V106.186H169.279V98.4759H168.82C167.794 100.849 166.151 102.834 163.89 104.42C161.645 105.982 158.854 106.768 155.512 106.768C152.649 106.768 150.118 106.135 147.914 104.88C145.73 103.604 144.01 101.721 142.755 99.2311C141.515 96.7359 140.898 93.6539 140.898 89.98V61.6551H149.567V88.9339C149.567 91.97 150.409 94.3886 152.088 96.1848C153.767 97.9809 155.956 98.8841 158.64 98.8841C160.262 98.8841 161.88 98.4759 163.482 97.6595C165.105 96.8532 166.447 95.6235 167.513 93.9855C168.595 92.3374 169.126 90.2504 169.105 87.7195ZM195.67 106.186H187V46.8115H195.67V106.186ZM204.885 61.6551H213.555V106.191H204.885V61.6551ZM209.263 54.7819C207.758 54.7819 206.462 54.2818 205.38 53.2766C204.314 52.2509 203.783 51.0365 203.783 49.6231C203.783 48.1943 204.314 46.9748 205.38 45.9696C206.462 44.9439 207.758 44.4337 209.263 44.4337C210.768 44.4337 212.054 44.9439 213.116 45.9696C214.203 46.9748 214.743 48.1943 214.743 49.6231C214.743 51.0365 214.203 52.2509 213.116 53.2766C212.054 54.2818 210.768 54.7819 209.263 54.7819ZM241.961 107.084C237.573 107.084 233.792 106.145 230.623 104.272C227.475 102.379 225.036 99.726 223.316 96.3021C221.617 92.863 220.765 88.8319 220.765 84.214C220.765 79.6522 221.617 75.6262 223.316 72.1513C225.036 68.6713 227.434 65.9567 230.506 64.0023C233.598 62.0531 237.216 61.0734 241.349 61.0734C243.864 61.0734 246.298 61.4918 248.656 62.3236C251.013 63.1553 253.131 64.4565 255.003 66.2373C256.876 68.013 258.356 70.3245 259.438 73.1667C260.524 75.9885 261.065 79.4175 261.065 83.4588V86.5306H225.663V80.0349H252.575C252.575 77.754 252.105 75.7333 251.176 73.978C250.253 72.1972 248.947 70.7991 247.268 69.7734C245.599 68.7478 243.65 68.2376 241.41 68.2376C238.976 68.2376 236.848 68.8346 235.032 70.0337C233.235 71.2124 231.842 72.7585 230.858 74.672C229.888 76.5702 229.408 78.6266 229.408 80.8462V85.9233C229.408 88.8982 229.929 91.4342 230.97 93.5161C232.031 95.6031 233.511 97.2002 235.404 98.2973C237.302 99.3842 239.512 99.925 242.048 99.925C243.686 99.925 245.186 99.6954 246.538 99.2311C247.895 98.7463 249.064 98.0319 250.049 97.0829C251.034 96.1389 251.784 94.9653 252.309 93.5773L260.514 95.0571C259.856 97.4707 258.677 99.5832 256.978 101.405C255.294 103.201 253.182 104.604 250.63 105.609C248.1 106.589 245.206 107.084 241.961 107.084ZM289.018 68.61H264.693V61.65H289.018V68.61ZM271.22 50.9855H279.889V93.113C279.889 94.7918 280.139 96.0623 280.644 96.9094C281.144 97.7411 281.792 98.3075 282.588 98.6188C283.4 98.9096 284.277 99.0576 285.221 99.0576C285.92 99.0576 286.528 99.0066 287.053 98.9096C287.574 98.8127 287.977 98.7361 288.268 98.68L289.829 105.839C289.334 106.033 288.615 106.227 287.691 106.421C286.762 106.63 285.599 106.747 284.211 106.768C281.93 106.803 279.802 106.4 277.833 105.548C275.858 104.696 274.266 103.385 273.046 101.609C271.827 99.8281 271.22 97.5982 271.22 94.9091V50.9855ZM364.976 46.8115V106.186H359.7L324.619 56.4657H324.155V106.186H318.736V46.8115H323.981L359.174 96.5879H359.638V46.8115H364.976ZM389.678 107.201C386.989 107.201 384.539 106.681 382.31 105.635C380.09 104.574 378.319 103.048 377.003 101.053C375.696 99.0474 375.038 96.6083 375.038 93.7508C375.038 91.5465 375.452 89.6891 376.283 88.1838C377.115 86.6734 378.289 85.4386 379.819 84.4691C381.35 83.5047 383.157 82.7444 385.244 82.1831C387.33 81.6218 389.632 81.1881 392.137 80.8768C394.637 80.5656 396.745 80.2951 398.464 80.0655C400.199 79.8308 401.526 79.4634 402.434 78.9633C403.343 78.4633 403.792 77.6468 403.792 76.5294V75.4833C403.792 72.4472 402.888 70.0643 401.067 68.3243C399.276 66.5639 396.684 65.6862 393.301 65.6862C390.096 65.6862 387.473 66.3904 385.448 67.8038C383.437 69.2122 382.024 70.8756 381.212 72.7891L376.314 71.0185C377.319 68.5845 378.707 66.6404 380.488 65.1913C382.269 63.7217 384.254 62.6706 386.463 62.0327C388.662 61.3745 390.897 61.0479 393.153 61.0479C394.852 61.0479 396.628 61.2673 398.464 61.7113C400.317 62.1552 402.041 62.9308 403.618 64.033C405.21 65.1147 406.496 66.6302 407.481 68.5845C408.461 70.5184 408.961 72.9728 408.961 75.9477V106.186H403.792V99.1392H403.48C402.863 100.456 401.944 101.731 400.725 102.966C399.505 104.206 397.98 105.222 396.138 106.012C394.306 106.803 392.153 107.201 389.678 107.201ZM390.377 102.476C393.117 102.476 395.49 101.869 397.505 100.65C399.516 99.4301 401.057 97.8176 402.144 95.8072C403.246 93.7814 403.792 91.5465 403.792 89.1125V82.673C403.409 83.0403 402.761 83.372 401.858 83.6578C400.965 83.9486 399.934 84.214 398.755 84.4436C397.592 84.6579 396.434 84.8416 395.275 84.9947C394.117 85.1477 393.071 85.2855 392.137 85.3978C389.632 85.709 387.484 86.1887 385.708 86.8469C383.927 87.5052 382.56 88.4134 381.621 89.5717C380.672 90.7147 380.192 92.1843 380.192 93.9855C380.192 96.6899 381.166 98.782 383.095 100.272C385.029 101.742 387.453 102.476 390.377 102.476ZM420.294 61.6551H425.483V106.191H420.294V61.6551ZM422.927 54.0011C421.865 54.0011 420.962 53.644 420.202 52.9296C419.457 52.1948 419.079 51.312 419.079 50.2915C419.079 49.2659 419.457 48.3984 420.202 47.679C420.962 46.9442 421.865 46.5819 422.927 46.5819C423.993 46.5819 424.906 46.9442 425.657 47.679C426.412 48.3984 426.784 49.2659 426.784 50.2915C426.784 51.312 426.412 52.1948 425.657 52.9296C424.906 53.644 423.993 54.0011 422.927 54.0011ZM441.842 106.186H436.683V46.8115H441.842V106.186ZM482.97 71.4267L478.239 72.7585C477.775 71.4267 477.122 70.2174 476.275 69.1356C475.423 68.0539 474.31 67.1915 472.933 66.5537C471.586 65.9158 469.907 65.5995 467.896 65.5995C464.881 65.5995 462.406 66.3138 460.472 67.7426C458.538 69.1713 457.574 71.0185 457.574 73.279C457.574 75.1925 458.227 76.7488 459.538 77.9479C460.88 79.1266 462.921 80.0655 465.687 80.7595L472.417 82.4127C476.147 83.321 478.938 84.7599 480.791 86.7347C482.669 88.7043 483.607 91.1791 483.607 94.1539C483.607 96.6695 482.908 98.8994 481.52 100.849C480.122 102.803 478.188 104.344 475.688 105.467C473.218 106.564 470.346 107.115 467.085 107.115C462.727 107.115 459.15 106.135 456.323 104.191C453.507 102.216 451.695 99.3739 450.904 95.6643L455.864 94.4448C456.502 97.0931 457.747 99.0933 459.605 100.446C461.477 101.803 463.942 102.476 466.998 102.476C470.417 102.476 473.147 101.711 475.203 100.185C477.249 98.6392 478.275 96.7053 478.275 94.3887C478.275 92.5874 477.673 91.0821 476.479 89.8626C475.28 88.6278 473.463 87.7195 471.019 87.1378L463.743 85.3978C459.885 84.4691 457.023 83.0046 455.165 80.9942C453.313 78.9837 452.384 76.4885 452.384 73.5137C452.384 71.0593 453.053 68.906 454.384 67.0486C455.711 65.1709 457.553 63.7064 459.895 62.6399C462.232 61.5786 464.901 61.0479 467.896 61.0479C471.973 61.0479 475.224 61.9715 477.663 63.8289C480.117 65.6658 481.888 68.1967 482.97 71.4267Z" fill="white"/>
<path d="M79.8193 35.2348C79.3499 38.9393 78.7477 42.9193 76.1352 45.588C73.6604 48.1189 69.9151 48.8894 66.384 49.1344C50.1066 50.2519 33.9873 42.8275 17.7915 44.8328C12.8164 45.4503 7.70351 47.1239 4.36638 50.8693C1.1364 54.4973 0.018914 59.6612 0.498563 64.4985C0.978213 69.3358 2.89681 73.918 5.12157 78.2399C11.0968 89.8382 19.3682 100.079 26.119 111.249C32.8647 122.414 38.5082 132.655 37.2224 148.126C37.1509 148.998 37.1356 150.044 37.8449 150.575C38.8705 151.335 40.2533 150.279 40.9932 149.238C48.3104 138.926 40.0492 121.822 35.3803 111.902C33.1351 107.131 33.8138 108.795 31.5584 104.024C27.0528 94.5225 22.9809 84.6131 21.8991 74.0608C21.4858 70.0093 21.7358 65.3965 24.7311 62.636C27.5783 60.0081 31.8799 59.9877 35.7528 60.1153C46.7082 60.4827 57.6687 60.8501 68.6292 61.2124C72.548 61.3399 77.018 61.2532 79.6356 58.3294C80.9419 56.8751 81.5491 54.9259 81.9267 53.0073C83.1003 47.0576 82.3502 40.7456 79.8193 35.2348Z" fill="white"/>
<path d="M59.3063 22.7389C59.3063 32.2298 55.5303 35.2914 50.4787 35.3424V0.89953C55.8875 1.6139 59.3063 13.2479 59.3063 22.7389Z" fill="#C7C7C7"/>
<path d="M50.479 0.901455V35.3444H50.377C45.2743 35.3444 41.6514 33.3543 41.6514 23.8124C41.6514 14.2704 45.7336 0.289133 50.377 0.850425C50.428 0.850425 50.428 0.850428 50.479 0.901455Z" fill="white"/>
</svg>
