<svg viewBox="0 0 512.00 512.00" xmlns="http://www.w3.org/2000/svg" fill="#a19191" stroke="#a19191" transform="rotate(0)matrix(-1, 0, 0, 1, 0, 0)" stroke-width="0.00512"><g id="SVGRepo_bgCarrier" stroke-width="0"></g><g id="SVGRepo_tracerCarrier" stroke-linecap="round" stroke-linejoin="round"></g><g id="SVGRepo_iconCarrier"> <polygon fill="var(--ci-primary-color, #c7b8b8)" points="40 472 472 472 472 312 440 312 440 440 72 440 72 312 40 312 40 472" class="ci-primary"></polygon> <path fill="var(--ci-primary-color, #c7b8b8)" d="M40,265.755l49.373,25.437,53.82-46.829,56.159,50.528L256,247.052l56.648,47.839,56.159-50.528,53.82,46.829L472,265.755V40H40ZM72,72H440V246.244l-12.738,6.564-58.809-51.171-56.471,50.806L256,205.167l-55.982,47.276-56.471-50.806L84.738,252.808,72,246.244Z" class="ci-primary"></path> </g></svg>