<svg width="166" height="147" viewBox="0 0 166 147" fill="none" xmlns="http://www.w3.org/2000/svg">
<path d="M82.5781 146.25C84.1314 146.25 85.3906 144.991 85.3906 143.438C85.3906 141.884 84.1314 140.625 82.5781 140.625C81.0248 140.625 79.7656 141.884 79.7656 143.438C79.7656 144.991 81.0248 146.25 82.5781 146.25Z" fill="#F9A215"/>
<path d="M125.334 64.6875C125.334 59.8219 128.962 54.45 127.527 50.0906C126.093 45.7312 119.934 43.3406 117.177 39.5719C114.421 35.8031 114.168 29.25 110.371 26.4656C106.574 23.6813 100.331 25.4813 95.8025 24.0188C91.2743 22.5563 87.365 17.4375 82.5837 17.4375C77.8025 17.4375 73.7525 22.5 69.365 24.0188C64.9775 25.5375 58.5931 23.7094 54.7962 26.4656C50.9993 29.2219 50.7743 35.7469 47.99 39.5719C45.2056 43.3969 39.1025 45.5344 37.5837 50.0906C36.065 54.6469 39.7775 59.8219 39.7775 64.6875C39.7775 69.5531 36.1493 74.925 37.5837 79.2844C39.0181 83.6437 45.1775 86.0344 47.9337 89.8031C50.69 93.5719 50.9431 100.125 54.74 102.909C58.5368 105.694 64.7806 103.894 69.3087 105.356C73.8368 106.819 77.7462 111.937 82.5275 111.937C87.3087 111.937 91.3587 106.791 95.7462 105.356C100.134 103.922 106.518 105.666 110.315 102.909C114.112 100.153 114.337 93.6281 117.121 89.8031C119.906 85.9781 126.009 83.8406 127.471 79.2844C128.934 74.7281 125.334 69.5531 125.334 64.6875Z" fill="#FCCD1D"/>
<path d="M82.5781 97.1484C100.363 97.1484 114.781 82.7306 114.781 64.9453C114.781 47.16 100.363 32.7422 82.5781 32.7422C64.7928 32.7422 50.375 47.16 50.375 64.9453C50.375 82.7306 64.7928 97.1484 82.5781 97.1484Z" fill="#F9A215"/>
<path d="M85.6706 47.8138L89.0737 53.7482C89.3291 54.1835 89.6744 54.5592 90.0867 54.8502C90.499 55.1413 90.9687 55.3409 91.4643 55.4357L98.2987 56.7857C98.8868 56.9071 99.4327 57.1806 99.882 57.5791C100.331 57.9775 100.668 58.4868 100.859 59.0562C101.05 59.6256 101.088 60.2351 100.969 60.8237C100.85 61.4124 100.579 61.9596 100.183 62.4107L95.4862 67.5013C95.1313 67.8711 94.8637 68.3156 94.7031 68.8023C94.5425 69.289 94.4929 69.8055 94.5581 70.3138L95.3737 77.0638C95.4357 77.6848 95.3326 78.3112 95.0748 78.8796C94.817 79.4479 94.4138 79.9381 93.9057 80.3006C93.3977 80.6631 92.8029 80.8849 92.1816 80.9438C91.5603 81.0026 90.9345 80.8964 90.3675 80.6357L84.0675 77.8232C83.5984 77.6138 83.0905 77.5056 82.5768 77.5056C82.0632 77.5056 81.5553 77.6138 81.0862 77.8232L74.7862 80.6357C74.2192 80.8964 73.5933 81.0026 72.972 80.9438C72.3507 80.8849 71.756 80.6631 71.248 80.3006C70.7399 79.9381 70.3366 79.4479 70.0789 78.8796C69.8211 78.3112 69.718 77.6848 69.78 77.0638L70.5956 70.3138C70.6608 69.8055 70.6112 69.289 70.4506 68.8023C70.29 68.3156 70.0224 67.8711 69.6675 67.5013L64.9706 62.4951C64.5743 62.044 64.3033 61.4967 64.1847 60.9081C64.0662 60.3194 64.1042 59.71 64.2949 59.1406C64.4856 58.5712 64.8225 58.0619 65.2717 57.6634C65.721 57.265 66.2669 56.9914 66.855 56.8701L73.6893 55.5201C74.185 55.4252 74.6547 55.2256 75.067 54.9346C75.4793 54.6436 75.8246 54.2679 76.08 53.8326L79.4831 47.8138C79.8021 47.2777 80.255 46.8336 80.7974 46.5252C81.3397 46.2168 81.9529 46.0547 82.5768 46.0547C83.2008 46.0547 83.814 46.2168 84.3563 46.5252C84.8987 46.8336 85.3516 47.2777 85.6706 47.8138Z" fill="#FCCD1D"/>
<path d="M24.9241 132.188C17.6679 132.188 11.396 126.928 8.44285 123.975C7.91902 123.448 7.625 122.735 7.625 121.992C7.625 121.249 7.91902 120.536 8.44285 120.009C11.396 117.056 17.6679 111.797 24.9241 111.797C32.1804 111.797 38.4522 117.056 41.4054 120.009C41.9292 120.536 42.2232 121.249 42.2232 121.992C42.2232 122.735 41.9292 123.448 41.4054 123.975C38.4522 126.928 32.1804 132.188 24.9241 132.188Z" fill="#FCCD1D"/>
<path d="M10.8058 97.9062C6.61238 95.9626 3.30757 92.5071 1.55271 88.2312C1.24463 87.5592 1.21356 86.7929 1.46621 86.0981C1.71886 85.4033 2.23491 84.8359 2.90271 84.5187C7.00176 82.3966 11.7437 81.8753 16.2058 83.0562C20.3968 85.0451 23.6959 88.5247 25.459 92.8156C25.767 93.4877 25.7981 94.254 25.5455 94.9488C25.2928 95.6436 24.7768 96.2109 24.109 96.5281C19.9983 98.6193 15.2578 99.1103 10.8058 97.9062Z" fill="#FCCD1D"/>
<path d="M6.30413 64.4945C3.76558 62.8245 1.89418 60.316 1.01663 57.407C0.888767 57.0305 0.842157 56.6313 0.879875 56.2355C0.917592 55.8398 1.03878 55.4565 1.23544 55.111C1.43211 54.7655 1.69978 54.4657 2.02081 54.2312C2.34184 53.9967 2.70893 53.8329 3.09788 53.7507C6.04159 53.027 9.14569 53.3554 11.8729 54.6788C14.443 56.3658 16.32 58.9216 17.1604 61.8788C17.2699 62.2483 17.3023 62.6363 17.2557 63.0189C17.209 63.4014 17.0842 63.7702 16.889 64.1025C16.6939 64.4348 16.4325 64.7234 16.1212 64.9505C15.8098 65.1776 15.4552 65.3383 15.0791 65.4226C12.1363 66.1584 9.02796 65.8296 6.30413 64.4945Z" fill="#FCCD1D"/>
<path d="M4.56154 36.9892C2.37227 35.503 0.794047 33.2755 0.117788 30.7173C0.00793326 30.3498 -0.0255699 29.9636 0.0193394 29.5827C0.0642488 29.2017 0.186621 28.8339 0.37893 28.502C0.571239 28.1701 0.829418 27.881 1.13759 27.6525C1.44576 27.4241 1.79741 27.2611 2.17091 27.1736C4.72442 26.5031 7.43241 26.752 9.82091 27.8767C11.9925 29.375 13.5582 31.599 14.2365 34.1486C14.3476 34.5105 14.3844 34.891 14.3449 35.2675C14.3053 35.6439 14.1902 36.0085 14.0063 36.3394C13.8225 36.6703 13.5738 36.9607 13.275 37.1932C12.9763 37.4256 12.6337 37.5954 12.2678 37.6923C9.69963 38.4098 6.95744 38.1596 4.56154 36.9892Z" fill="#FCCD1D"/>
<path d="M140.237 132.188C147.493 132.188 153.765 126.928 156.718 123.975C157.242 123.448 157.536 122.735 157.536 121.992C157.536 121.249 157.242 120.536 156.718 120.009C153.905 117.056 147.493 111.797 140.237 111.797C132.98 111.797 126.708 117.056 123.755 120.009C123.232 120.536 122.938 121.249 122.938 121.992C122.938 122.735 123.232 123.448 123.755 123.975C126.708 126.928 132.98 132.188 140.237 132.188Z" fill="#FCCD1D"/>
<path d="M154.354 97.9062C158.548 95.9626 161.853 92.5071 163.607 88.2312C163.915 87.5592 163.947 86.7929 163.694 86.0981C163.441 85.4033 162.925 84.8359 162.257 84.5187C158.158 82.3966 153.416 81.8753 148.954 83.0562C144.763 85.0451 141.464 88.5247 139.701 92.8156C139.393 93.4877 139.362 94.254 139.615 94.9488C139.867 95.6436 140.383 96.2109 141.051 96.5281C145.162 98.6193 149.902 99.1103 154.354 97.9062Z" fill="#FCCD1D"/>
<path d="M158.855 64.4945C161.394 62.8245 163.265 60.316 164.143 57.407C164.27 57.0305 164.317 56.6313 164.279 56.2355C164.242 55.8398 164.12 55.4565 163.924 55.111C163.727 54.7655 163.459 54.4657 163.138 54.2312C162.817 53.9967 162.45 53.8329 162.061 53.7507C159.118 53.027 156.013 53.3554 153.286 54.6788C150.716 56.3658 148.839 58.9216 147.999 61.8788C147.889 62.2483 147.857 62.6363 147.904 63.0189C147.95 63.4014 148.075 63.7702 148.27 64.1025C148.465 64.4348 148.727 64.7234 149.038 64.9505C149.349 65.1776 149.704 65.3383 150.08 65.4226C153.023 66.1584 156.131 65.8296 158.855 64.4945Z" fill="#FCCD1D"/>
<path d="M160.596 36.9892C162.785 35.503 164.363 33.2755 165.039 30.7173C165.149 30.3498 165.183 29.9636 165.138 29.5827C165.093 29.2017 164.971 28.8339 164.778 28.502C164.586 28.1701 164.328 27.881 164.02 27.6525C163.711 27.4241 163.36 27.2611 162.986 27.1736C160.433 26.5031 157.725 26.752 155.336 27.8767C153.165 29.375 151.599 31.599 150.921 34.1486C150.81 34.5105 150.773 34.891 150.812 35.2675C150.852 35.6439 150.967 36.0085 151.151 36.3394C151.335 36.6703 151.583 36.9607 151.882 37.1932C152.181 37.4256 152.523 37.5954 152.889 37.6923C155.457 38.4098 158.2 38.1596 160.596 36.9892Z" fill="#FCCD1D"/>
<path d="M72.7398 141.022C34.771 118.747 17.1929 79.3156 17.896 16.8781V7.76562C17.896 7.0197 17.5997 6.30433 17.0722 5.77689C16.5448 5.24944 15.8294 4.95312 15.0835 4.95312C14.3376 4.95312 13.6222 5.24944 13.0948 5.77689C12.5673 6.30433 12.271 7.0197 12.271 7.76562V16.8781C11.5398 81.5656 29.8773 122.487 69.9273 145.859C70.3471 146.126 70.8363 146.263 71.3335 146.253C71.9473 146.247 72.5422 146.04 73.0274 145.664C73.5126 145.288 73.8615 144.764 74.0209 144.171C74.1802 143.578 74.1413 142.949 73.91 142.381C73.6787 141.812 73.2677 141.335 72.7398 141.022Z" fill="#F9A215"/>
<path d="M150.077 4.95312C149.331 4.95312 148.616 5.24944 148.089 5.77689C147.561 6.30433 147.265 7.0197 147.265 7.76562V16.8781C147.94 79.3156 130.39 118.747 92.3929 141.022C91.863 141.336 91.451 141.816 91.2203 142.387C90.9895 142.959 90.9528 143.59 91.1157 144.184C91.2787 144.779 91.6323 145.303 92.1222 145.677C92.612 146.05 93.2111 146.253 93.8273 146.253C94.3246 146.263 94.8137 146.126 95.2336 145.859C135.284 122.487 153.621 81.5656 152.89 16.8781V7.76562C152.89 7.0197 152.593 6.30433 152.066 5.77689C151.539 5.24944 150.823 4.95312 150.077 4.95312Z" fill="#F9A215"/>
<path d="M10.75 7.7645C10.9086 5.17965 11.8947 2.71443 13.5625 0.73325C13.747 0.504323 13.9805 0.319634 14.2457 0.192748C14.511 0.0658614 14.8013 0 15.0953 0C15.3893 0 15.6796 0.0658614 15.9449 0.192748C16.2101 0.319634 16.4436 0.504323 16.6281 0.73325C18.3083 2.70701 19.2961 5.17652 19.4406 7.7645C19.2961 10.3525 18.3083 12.822 16.6281 14.7958C16.4436 15.0247 16.2101 15.2094 15.9449 15.3363C15.6796 15.4631 15.3893 15.529 15.0953 15.529C14.8013 15.529 14.511 15.4631 14.2457 15.3363C13.9805 15.2094 13.747 15.0247 13.5625 14.7958C11.8947 12.8146 10.9086 10.3493 10.75 7.7645Z" fill="#FCCD1D"/>
<path d="M154.409 7.7645C154.251 5.17965 153.265 2.71443 151.597 0.73325C151.412 0.504323 151.179 0.319634 150.914 0.192748C150.648 0.0658614 150.358 0 150.064 0C149.77 0 149.48 0.0658614 149.214 0.192748C148.949 0.319634 148.716 0.504323 148.531 0.73325C146.851 2.70701 145.863 5.17652 145.719 7.7645C145.863 10.3525 146.851 12.822 148.531 14.7958C148.716 15.0247 148.949 15.2094 149.214 15.3363C149.48 15.4631 149.77 15.529 150.064 15.529C150.358 15.529 150.648 15.4631 150.914 15.3363C151.179 15.2094 151.412 15.0247 151.597 14.7958C153.265 12.8146 154.251 10.3493 154.409 7.7645Z" fill="#FCCD1D"/>
</svg>
